<svg xmlns="http://www.w3.org/2000/svg" width="649" height="567" viewBox="0 0 649 567">
  <defs>
    <style>
      .cls-1 {
        fill: #ecbd00;
        fill-rule: evenodd;
      }
    </style>
  </defs>
  <path id="Shape" class="cls-1" d="M1789.01,187.7q4.275,10.886,8.54,21.77a12.257,12.257,0,0,0,.38,2.022,208.181,208.181,0,0,1,8.49,32.064q15.9,85.181-23.56,162.354a262.911,262.911,0,0,1-33.57,50.138c-29.25,34.485-64.99,60.355-105.86,79.254q-13.5,6.245-27.63,11.152a371.852,371.852,0,0,1-48.9,13.467,363.225,363.225,0,0,1-98.29,6.068,368.262,368.262,0,0,1-98.4-20.752,353.546,353.546,0,0,1-54.45-24.817,329.059,329.059,0,0,1-73.76-56.4,291.216,291.216,0,0,1-59.24-87.631,246.319,246.319,0,0,1-14.24-43.615,249.217,249.217,0,0,1,26.24-180.2,269.279,269.279,0,0,1,46.26-60.051,303.706,303.706,0,0,1,81.83-57.289c2.95-1.418,5.86-2.938,8.78-4.41q17.64-6.932,35.26-13.865a11.653,11.653,0,0,0,1.78-.3c10.1-3.284,20.37-5.936,30.74-8.216A363.772,363.772,0,0,1,1503.48.94a367.7,367.7,0,0,1,99.39,20.867,352.65,352.65,0,0,1,54.19,24.7c36.75,20.786,68.75,47.224,94.99,80.478a284.171,284.171,0,0,1,32.44,51.419C1786.01,181.494,1786.96,184.874,1789.01,187.7Z" transform="translate(-1162)"/>
</svg>
