<svg xmlns="http://www.w3.org/2000/svg" width="1136" height="999" viewBox="0 0 1136 999">
  <defs>
    <style>
      .cls-1 {
        fill: #d5d0c5;
        fill-rule: evenodd;
      }
    </style>
  </defs>
  <path id="Shape" class="cls-1" d="M3207.65,1831.72c16.93,0,30.71-14.51,30.71-32.36s-13.78-32.36-30.71-32.36-30.72,14.52-30.72,32.36S3190.71,1831.72,3207.65,1831.72Zm0-60.38c14.67,0,26.6,12.57,26.6,28.02s-11.93,28.03-26.6,28.03-26.61-12.57-26.61-28.03S3192.98,1771.34,3207.65,1771.34Zm0,85.94c30.32,0,54.98-25.98,54.98-57.92s-24.66-57.92-54.98-57.92-54.99,25.98-54.99,57.92S3177.33,1857.28,3207.65,1857.28Zm0-111.5c28.05,0,50.87,24.03,50.87,53.58s-22.82,53.59-50.87,53.59-50.88-24.04-50.88-53.59S3179.59,1745.78,3207.65,1745.78Zm-98.87,82.8a35.878,35.878,0,0,0-3.68,43.28,32.475,32.475,0,0,0,27.45,15.47,31.468,31.468,0,0,0,11.87-2.34c-2.05,15.99,6.67,31.44,21.53,37.08a31.33,31.33,0,0,0,11.09,2.04,32.76,32.76,0,0,0,27.91-16.23c5.72,10.76,16.79,17.75,28.69,17.75h0.39a29.653,29.653,0,0,0,9.16-1.49c15.1-4.79,24.57-19.75,23.33-35.87a31.346,31.346,0,0,0,13.46,3.04,32.575,32.575,0,0,0,26.44-13.98,35.97,35.97,0,0,0-1.56-43.45c14.78-3.44,25.83-17.56,25.83-33.87a35.025,35.025,0,0,0-17.37-30.55,36.355,36.355,0,0,0,.09-35.7,32.8,32.8,0,0,0-28.32-16.94,30.991,30.991,0,0,0-10.3,1.74c2.81-15.84-5.13-31.73-19.67-38.18a31.226,31.226,0,0,0-12.68-2.69,32.418,32.418,0,0,0-26.98,14.72c-5.47-11.71-16.85-19.31-29.45-19.31a31.367,31.367,0,0,0-7.93,1.02c-15.06,3.88-25.42,18.58-25.04,34.57a31.393,31.393,0,0,0-15-3.81,32.162,32.162,0,0,0-25.36,12.57,35.851,35.851,0,0,0-.59,43.48c-15.14,2.61-26.65,15.89-27.45,32.47C3083.83,1809.94,3093.99,1824.36,3108.78,1828.58Zm-20.03-34.96c0.77-15.8,12.65-28.19,27.65-28.8a2.06,2.06,0,0,0,1.83-1.39,2.219,2.219,0,0,0-.47-2.32,31.323,31.323,0,0,1-1.92-40.9,28.16,28.16,0,0,1,22.2-10.99,27.582,27.582,0,0,1,16.25,5.29,1.953,1.953,0,0,0,2.26.04,2.2,2.2,0,0,0,.93-2.16c-2.27-15.4,7.21-30.36,21.59-34.06a27.255,27.255,0,0,1,6.94-.9c12.25,0,23.16,8.21,27.16,20.43a2.014,2.014,0,0,0,3.76.31,28.6,28.6,0,0,1,25.51-16.15,27.172,27.172,0,0,1,11.08,2.36c13.87,6.15,20.89,22.11,16.33,37.13a2.238,2.238,0,0,0,.61,2.29,1.962,1.962,0,0,0,2.24.32,27.25,27.25,0,0,1,12.39-2.97,28.681,28.681,0,0,1,24.78,14.83,31.758,31.758,0,0,1-1.23,33.09,2.3,2.3,0,0,0-.3,1.83,2.122,2.122,0,0,0,1.14,1.4,30.511,30.511,0,0,1,17.1,27.71c0,15.57-11.51,28.84-26.19,30.23a2.049,2.049,0,0,0-1.77,1.47,2.248,2.248,0,0,0,.58,2.3,31.377,31.377,0,0,1,3.92,40.73,28.137,28.137,0,0,1-23.14,12.24,27.611,27.611,0,0,1-14.99-4.46,1.955,1.955,0,0,0-2.26.07,2.206,2.206,0,0,0-.83,2.21c3.04,15.5-5.51,30.63-19.91,35.2a25.878,25.878,0,0,1-7.96,1.29h-0.36c-11.66,0-22.39-7.62-26.69-18.97a2.067,2.067,0,0,0-1.85-1.36h-0.06a2.042,2.042,0,0,0-1.86,1.25,28.913,28.913,0,0,1-26.17,17.57,27.4,27.4,0,0,1-9.7-1.78c-14.16-5.38-21.96-20.95-18.13-36.21a2.214,2.214,0,0,0-.72-2.25,1.967,1.967,0,0,0-2.25-.21,27.581,27.581,0,0,1-13.69,3.66,28.4,28.4,0,0,1-24.02-13.53,31.278,31.278,0,0,1,5.91-40.45,2.222,2.222,0,0,0,.69-2.26,2.1,2.1,0,0,0-1.69-1.58C3098.84,1822.99,3087.99,1809.13,3088.75,1793.62Zm-4.94,93.3a38.914,38.914,0,0,0,32.88,18.53,37.753,37.753,0,0,0,14.91-3.1c-2.84,19.43,7.65,38.35,25.69,45.21a37.49,37.49,0,0,0,13.29,2.44c13.88,0,26.74-7.77,33.82-20.12,6.75,13.29,20.23,21.95,34.74,21.95h0.46a36.1,36.1,0,0,0,10.98-1.77c18.32-5.82,29.73-24.15,27.87-43.77a37.678,37.678,0,0,0,16.81,3.98,39.056,39.056,0,0,0,31.68-16.75,43.1,43.1,0,0,0-2.38-52.64c18.07-3.82,31.69-20.92,31.69-40.73,0-15.51-8.26-29.7-21.23-36.83a43.533,43.533,0,0,0,.36-43.19,39.335,39.335,0,0,0-33.94-20.29,37.1,37.1,0,0,0-13.04,2.35c3.77-19.24-5.77-38.69-23.42-46.52a37.485,37.485,0,0,0-15.2-3.22,38.884,38.884,0,0,0-32.73,18.28c-6.43-14.42-20.26-23.84-35.61-23.84a37.8,37.8,0,0,0-9.5,1.22c-18.29,4.72-30.79,22.75-29.96,42.2a37.691,37.691,0,0,0-18.63-4.93,38.552,38.552,0,0,0-30.39,15.06,42.92,42.92,0,0,0-.23,52.7c-18.5,2.82-32.66,18.9-33.63,39.02-0.98,20.08,11.53,37.56,29.65,42.35A42.947,42.947,0,0,0,3083.81,1886.92Zm-20.61-94.54c0.94-19.38,15.52-34.56,33.91-35.32a2.048,2.048,0,0,0,1.84-1.38,2.257,2.257,0,0,0-.47-2.33,38.379,38.379,0,0,1-2.35-50.15,34.531,34.531,0,0,1,27.22-13.48,33.87,33.87,0,0,1,19.92,6.49,1.971,1.971,0,0,0,2.26.04,2.235,2.235,0,0,0,.94-2.17c-2.8-18.87,8.82-37.21,26.46-41.76a33.681,33.681,0,0,1,8.51-1.1c15.02,0,28.4,10.07,33.31,25.06a2.066,2.066,0,0,0,1.79,1.45,2.042,2.042,0,0,0,1.98-1.15c6.11-12.21,18.1-19.8,31.26-19.8a33.6,33.6,0,0,1,13.6,2.89c17.01,7.54,25.61,27.11,20.02,45.53a2.233,2.233,0,0,0,.61,2.29,1.964,1.964,0,0,0,2.24.33,33.33,33.33,0,0,1,15.19-3.64,35.212,35.212,0,0,1,30.4,18.17,38.961,38.961,0,0,1-1.51,40.59,2.245,2.245,0,0,0-.31,1.82,2.182,2.182,0,0,0,1.15,1.41c12.74,5.99,20.96,19.32,20.96,33.98,0,19.09-14.1,35.37-32.11,37.06a2.051,2.051,0,0,0-1.77,1.47,2.248,2.248,0,0,0,.58,2.3,38.505,38.505,0,0,1,4.8,49.95,34.545,34.545,0,0,1-28.37,15.01,33.738,33.738,0,0,1-18.39-5.48,1.974,1.974,0,0,0-2.25.08,2.193,2.193,0,0,0-.84,2.21c3.74,19-6.75,37.55-24.4,43.16a31.754,31.754,0,0,1-9.78,1.59l-0.43-.01c-14.3,0-27.45-9.34-32.73-23.25a2.064,2.064,0,0,0-1.86-1.37h-0.05a2.02,2.02,0,0,0-1.86,1.26c-5.79,13.08-18.39,21.53-32.1,21.53a33.543,33.543,0,0,1-11.89-2.18c-17.37-6.6-26.92-25.68-22.23-44.39a2.267,2.267,0,0,0-.72-2.27,1.966,1.966,0,0,0-2.25-.2,33.877,33.877,0,0,1-16.79,4.5,34.846,34.846,0,0,1-29.45-16.6c-10.21-16.15-7.09-37.48,7.25-49.61a2.247,2.247,0,0,0,.7-2.26,2.109,2.109,0,0,0-1.7-1.57C3075.28,1828.35,3062.26,1811.72,3063.2,1792.38Zm36.33,132.68a44.508,44.508,0,0,0,18.22-3.94c-3.72,23.16,8.68,45.85,30.17,54.01a43.988,43.988,0,0,0,15.66,2.88c16.6,0,31.96-9.42,40.23-24.34,7.84,16.03,23.93,26.52,41.27,26.52h0.54a42.641,42.641,0,0,0,12.95-2.09c21.82-6.93,35.32-28.93,32.78-52.32a44.338,44.338,0,0,0,20.45,5.01,46.009,46.009,0,0,0,37.33-19.75,50.753,50.753,0,0,0-3.26-62.58c21.64-4.22,38.03-24.56,38.03-48.17,0-18.43-9.89-35.28-25.39-43.62a51.287,51.287,0,0,0,.63-51.27c-8.34-14.76-23.66-23.93-39.99-23.93a43.884,43.884,0,0,0-16.04,3.02c4.83-22.91-6.44-46.23-27.47-55.55a43.975,43.975,0,0,0-17.9-3.8,45.852,45.852,0,0,0-38.98,22.16c-7.45-17.38-23.93-28.77-42.27-28.77a44.727,44.727,0,0,0-11.19,1.44c-21.79,5.62-36.62,27.27-35.29,50.48a44.387,44.387,0,0,0-22.57-6.16,45.488,45.488,0,0,0-35.83,17.74,50.621,50.621,0,0,0,.18,62.69c-22.14,3.03-39.17,22.13-40.33,46.11-1.16,23.91,13.91,44.7,35.62,50.09-16.06,16.31-18.94,42.32-6.31,62.29C3069.41,1916.89,3083.9,1925.06,3099.53,1925.06Zm-26.63-83.76a2.222,2.222,0,0,0,.69-2.26,2.123,2.123,0,0,0-1.69-1.58c-21.84-3.26-37.46-23.22-36.33-46.42,1.12-23.24,18.61-41.46,40.67-42.37a2.048,2.048,0,0,0,1.84-1.38,2.257,2.257,0,0,0-.47-2.33,46.051,46.051,0,0,1-2.83-60.16,41.457,41.457,0,0,1,32.66-16.18,40.589,40.589,0,0,1,23.9,7.79,1.988,1.988,0,0,0,2.26.04,2.216,2.216,0,0,0,.94-2.17c-3.35-22.64,10.59-44.65,31.75-50.1a40.669,40.669,0,0,1,10.2-1.32c18.02,0,34.08,12.08,39.96,30.06a2.064,2.064,0,0,0,1.79,1.45,2.02,2.02,0,0,0,1.98-1.15c7.35-14.65,21.72-23.75,37.52-23.75a40.167,40.167,0,0,1,16.31,3.47c20.39,9.04,30.72,32.52,24.01,54.62a2.254,2.254,0,0,0,.62,2.3,1.961,1.961,0,0,0,2.23.31,40.228,40.228,0,0,1,18.24-4.36c14.89,0,28.86,8.35,36.46,21.81a46.713,46.713,0,0,1-1.81,48.68,2.252,2.252,0,0,0-.31,1.82,2.168,2.168,0,0,0,1.14,1.41c15.28,7.18,25.15,23.19,25.15,40.76,0,22.91-16.92,42.44-38.52,44.46a2.088,2.088,0,0,0-1.78,1.48,2.257,2.257,0,0,0,.59,2.3c16.43,15.49,18.91,41.26,5.76,59.93a41.423,41.423,0,0,1-34.04,17.99,40.49,40.49,0,0,1-22.06-6.56,1.955,1.955,0,0,0-2.26.07,2.213,2.213,0,0,0-.83,2.21c4.48,22.8-8.1,45.06-29.27,51.78a38.6,38.6,0,0,1-11.75,1.91h-0.51c-17.15,0-32.93-11.22-39.26-27.92a2.067,2.067,0,0,0-1.85-1.36h-0.06a2.036,2.036,0,0,0-1.86,1.26c-6.94,15.7-22.05,25.84-38.5,25.84a40.285,40.285,0,0,1-14.27-2.63c-20.84-7.91-32.3-30.8-26.67-53.25a2.247,2.247,0,0,0-.72-2.27,2,2,0,0,0-2.25-.2,40.6,40.6,0,0,1-20.14,5.39,41.789,41.789,0,0,1-35.33-19.91C3051.95,1881.44,3055.69,1855.85,3072.9,1841.3Zm134.74,173.91c112.99,0,204.91-96.83,204.91-215.85s-91.92-215.85-204.91-215.85-204.9,96.83-204.9,215.85S3094.66,2015.21,3207.64,2015.21Zm0-427.36c110.72,0,200.8,94.88,200.8,211.51s-90.08,211.52-200.8,211.52-200.79-94.89-200.79-211.52S3096.92,1587.85,3207.64,1587.85Zm448.02,211.51c0-260.22-200.98-471.93-448.01-471.93s-448.01,211.71-448.01,471.93,200.98,471.93,448.01,471.93S3655.66,2059.58,3655.66,1799.36Zm-497.37,464.69c30.89-.83,57.17-29.23,61.41-66.8,3.3-29.16-20.98-83.3-35.16-111.94a64.333,64.333,0,0,0,47.45,21.4,59.807,59.807,0,0,0,7.99-.54c24.6-3.12,44.87-20.18,53.48-43.83-6.88,26.19-23.73,97.27-12.86,128.47,10.69,30.7,36.14,51.34,63.32,51.34h0.01a51.955,51.955,0,0,0,8.46-.74A422.081,422.081,0,0,1,3158.29,2264.05Zm-183.92-320.97c4.53-9.1,7.37-15.32,7.8-16.26a2.271,2.271,0,0,0-.03-1.94,2.068,2.068,0,0,0-.64-0.76,2.315,2.315,0,0,0-.2-0.9,2.067,2.067,0,0,0-1.69-1.15c-26.96-1.78-49.46-21.58-55.99-49.29-5.7-24.27,2.22-49.27,19.88-65.07,4.52-3.37,7.41-5.63,7.98-6.08a2.235,2.235,0,0,0,0-3.46c-0.61-.49-3.85-3.06-8.96-6.89-17.04-15.76-24.66-40.27-19.14-64.14,6.4-27.7,28.83-47.59,55.82-49.5a2.06,2.06,0,0,0,1.69-1.15,2.293,2.293,0,0,0-.06-2.13,67.456,67.456,0,0,1,6.65-76.46,60.413,60.413,0,0,1,46.3-22.03,58.585,58.585,0,0,1,24.85,5.5,1.99,1.99,0,0,0,2.01-.2,2.22,2.22,0,0,0,.88-1.91c-1.6-28.42,14.3-54.35,39.58-64.51a58.641,58.641,0,0,1,22.06-4.32c18.63,0,36.69,9.17,48.3,24.54a2.032,2.032,0,0,0,1.87.8,2.091,2.091,0,0,0,1.62-1.26c9.97-23.18,31.99-38.16,56.09-38.16a59.6,59.6,0,0,1,7.3.45c26.89,3.29,48.38,24.31,53.48,52.31a2.133,2.133,0,0,0,1.29,1.62,1.969,1.969,0,0,0,1.99-.32,60.055,60.055,0,0,1,38.03-13.76,59.337,59.337,0,0,1,34.88,11.41c22.28,16.14,31.97,45.25,24.13,72.44a2.268,2.268,0,0,0,.44,2.07,1.964,1.964,0,0,0,1.9.69,58.2,58.2,0,0,1,11.02-1.05c22.95,0,43.85,13.25,54.56,34.57,12.68,25.14,8.47,55.7-10.48,76.05a2.273,2.273,0,0,0-.52,2.04,2.133,2.133,0,0,0,1.38,1.54c25.75,8.48,43.13,33.31,43.25,61.82v1.17c0,28.47-17.28,53.39-43.01,62a2.119,2.119,0,0,0-1.37,1.54,2.247,2.247,0,0,0,.54,2.05c19.03,20.22,23.35,50.76,10.74,76.01-10.7,21.45-31.63,34.78-54.62,34.78a58.253,58.253,0,0,1-10.79-1.02,2,2,0,0,0-1.91.7,2.293,2.293,0,0,0-.43,2.07c7.88,27.11-1.64,56.15-23.67,72.36a2.261,2.261,0,0,0-.26.16,59.137,59.137,0,0,1-35.04,11.55,60.252,60.252,0,0,1-37.87-13.56,1.973,1.973,0,0,0-1.99-.31,2.148,2.148,0,0,0-1.29,1.63c-4.97,27.99-26.36,49.1-53.25,52.51-26.85,3.58-52.49-12.03-63.54-37.46a2.048,2.048,0,0,0-1.62-1.24,1.055,1.055,0,0,0-.25-0.02,2.023,2.023,0,0,0-1.61.82c-11.62,15.48-29.75,24.73-48.5,24.73a58.731,58.731,0,0,1-21.82-4.22c-25.31-10.07-41.3-35.94-39.83-64.38a2.208,2.208,0,0,0-.88-1.91,1.99,1.99,0,0,0-2.01-.19,58.429,58.429,0,0,1-25.08,5.61,60.394,60.394,0,0,1-46.11-21.8A67.288,67.288,0,0,1,2974.37,1943.08Zm-158.8-356.87c9.25-18.87,28.36-30.14,51.12-30.14a72.346,72.346,0,0,1,34.36,8.99c29.62,16.12,67.08,93.13,74.28,108.38-9.77,1.58-44,6.7-75.73,6.7-23.69,0-40.81-2.78-50.91-8.28a74.779,74.779,0,0,1-34.32-38.6C2808.18,1617.13,2808.6,1600.41,2815.57,1586.21Zm-5.01,48.68a79.047,79.047,0,0,0,36.24,40.82c10.69,5.82,28.45,8.77,52.8,8.77a466.846,466.846,0,0,0,53.49-3.58c-16.56,8.99-29.08,25.17-33.71,45.21a72.192,72.192,0,0,0,9.23,55.03c-26.4-18.68-69.35-45.98-95.05-45.98-34.78,0-63.72,22.93-69.67,53.02a484.829,484.829,0,0,1,43.49-190.88A65.083,65.083,0,0,0,2810.56,1634.89Zm135.83,165.04c-1.74,1.25-3.39,2.6-4.99,4-20.56,15.31-77.78,55.76-107.84,55.76-36.8,0-66.74-26.96-66.74-60.1s29.94-60.1,66.74-60.1c29.56,0,85.44,39.55,106.81,55.53A66.4,66.4,0,0,0,2946.39,1799.93Zm-112.83,64.1c25.87,0,69.2-27.39,95.55-45.9a72.137,72.137,0,0,0-9.48,55.69c4.97,21.1,18.64,37.89,36.51,46.46a474.936,474.936,0,0,0-54.12-3.61c-24.78,0-42.81,3.02-53.57,8.97-31.36,17.32-46.86,52.73-37.84,82.64a484.314,484.314,0,0,1-46.71-197.24C2769.86,1841.12,2798.79,1864.03,2833.56,1864.03Zm16.8,65.44c10.17-5.61,27.55-8.47,51.66-8.47,30.01,0,62.08,4.52,73.55,6.31a71.37,71.37,0,0,0-5.08,14.14c-13.82,27.54-43.03,81.16-67.14,94.49a72.173,72.173,0,0,1-34.73,9.21c-22.57,0-41.58-11.14-50.87-29.8C2803.14,1986.01,2817.77,1947.48,2850.36,1929.47Zm321.92-403.57c-11.13-12.31-66.84-75.48-71.25-110.31-2.36-18.66,1.33-37.03,10.41-51.73,9.02-14.58,22.28-23.77,37.32-25.89a47.788,47.788,0,0,1,6.53-.46c29.06,0,54.35,26.74,58.84,62.2C3218.55,1434.52,3180.03,1510.96,3172.28,1525.9ZM3108,1361.5c-9.62,15.56-13.54,34.97-11.05,54.67,3.81,30.09,42.48,78.34,62.51,101.59a63.89,63.89,0,0,0-36.3-11.67,62.727,62.727,0,0,0-23.53,4.61c-19.75,7.94-34.1,24.91-39.72,45.34-0.43-32.51-3.51-92.02-19.57-115.86-14.39-21.34-36.39-34.09-58.84-34.09a53.923,53.923,0,0,0-18.34,3.2,428.6,428.6,0,0,1,169.72-70.86A60.443,60.443,0,0,0,3108,1361.5Zm-156.18,58.67a49.077,49.077,0,0,1,29.68-9.74c21.12,0,41.86,12.06,55.49,32.26,19.29,28.64,19.03,115.17,18.79,132.21-15.3-5.44-92.54-33.98-111.84-62.62-10.35-15.36-15.21-33.43-13.68-50.88C2931.79,1444.07,2939.45,1429.42,2951.82,1420.17Zm331.19-12.94c10.12-28.96,34-48.41,59.45-48.41a47.137,47.137,0,0,1,17.14,3.21c14.25,5.52,25.28,17.54,31.05,33.85,5.82,16.42,5.62,35.21-.56,52.89-11.52,32.95-79.44,81.62-92.92,91.03C3292.78,1523.44,3271.49,1440.19,3283.01,1407.23Zm116.5,208.51c3.43-16.61,21.78-100.64,46.67-124.02,13.69-12.88,30.62-19.98,47.66-19.98,16.03,0,30.28,6.4,40.11,18.01,20.95,24.72,15.65,65.83-11.8,91.65C3497.28,1604.78,3415.61,1614.11,3399.51,1615.74Zm124.98,400.07a77.257,77.257,0,0,1,24.94,45.9c2.48,17.21-1.59,33.37-11.48,45.49-9.9,12.14-24.45,18.82-40.97,18.82h-0.01c-16.63,0-33.26-6.76-46.82-19.02-25.3-22.88-44.87-106.93-48.53-123.52C3417.7,1984.86,3499.19,1992.93,3524.49,2015.81Zm29,45.25a81.682,81.682,0,0,0-26.31-48.54c-23.41-21.17-89.75-29.86-116.64-32.57,22.71-1.65,43-15.49,53.7-36.94a72.23,72.23,0,0,0-1.96-68.2c17.88,21.6,63.69,73.94,93.94,81.71a78.757,78.757,0,0,0,19.63,2.51h0.01c26.15,0,48.82-13.51,59.4-34.09a475.454,475.454,0,0,1-87.24,174.2C3553.54,2087.92,3555.48,2074.79,3553.49,2061.06Zm82.66-150.32c-6,25.88-30.79,43.96-60.3,43.96a74.854,74.854,0,0,1-18.66-2.39c-32.67-8.39-86.84-74.1-97.37-87.19,13.31-5.68,74.71-30.98,111.42-30.98a53.116,53.116,0,0,1,13,1.4,73.219,73.219,0,0,1,42.39,29.13C3636.37,1878.84,3639.74,1895.21,3636.15,1910.74ZM3299.3,2056.57c13.41,9.47,80.81,58.4,92.29,91.35,6.16,17.68,6.34,36.47.51,52.89-5.8,16.3-16.83,28.31-31.09,33.82a47.292,47.292,0,0,1-17.08,3.18h-0.01c-25.46,0-49.36-19.49-59.45-48.49C3272.98,2156.35,3294.81,2072.93,3299.3,2056.57Zm-126.66,14.67c7.87,14.84,46.92,90.62,42.98,125.5-4.07,35.95-29.3,63.06-58.7,63.05a47.6,47.6,0,0,1-5.85-.36c-31.24-3.93-53.11-38.44-48.76-76.93C3106.26,2147.63,3161.6,2083.68,3172.64,2071.24Zm-114.89-47.57c0.18,17.01.08,103.24-19.21,131.88-13.62,20.21-34.36,32.28-55.49,32.28a49.084,49.084,0,0,1-29.66-9.74c-25.66-19.18-29.2-60.5-7.91-92.1C2964.77,2057.33,3042.41,2029.04,3057.75,2023.67Zm-74.7,168.49c22.46,0,44.46-12.75,58.85-34.1,15.42-22.92,19.07-78.61,19.83-111.67,6.24,19.02,20.17,34.67,38.94,42.15a62.837,62.837,0,0,0,23.28,4.5,63.763,63.763,0,0,0,32.08-8.91c-20.6,24.81-54.6,69.55-57.8,97.86-4.23,37.36,15.07,71.13,44,79.88a428.508,428.508,0,0,1-183.21-75.33A53.45,53.45,0,0,0,2983.05,2192.16Zm389.11,41.48c10.67-6.94,18.96-17.71,23.79-31.31,6.18-17.39,6-37.24-.5-55.89-9.64-27.69-54.92-64.57-79.82-83.25a62.546,62.546,0,0,0,55.4-9.41,1.4,1.4,0,0,0,.26-0.16c19.13-13.95,29.44-36.94,28.26-60.56,6.46,27.54,24.44,95.99,47.91,117.22,14.31,12.95,31.9,20.08,49.51,20.08h0.01a56.909,56.909,0,0,0,33.61-10.54C3486.6,2168.98,3432.65,2208.13,3372.16,2233.64Zm269.45-335.83a64.056,64.056,0,0,0-11.65-35.68,77.243,77.243,0,0,0-44.75-30.8,57,57,0,0,0-13.97-1.53c-31.3,0-78.55,17.31-101.79,26.66,17.46-12.7,28.35-33.75,28.35-57.06v-1.22c-0.1-25-12.7-47.32-32.45-59.5,21.42,8.97,72.31,28.73,105.19,28.73h0.01a55.085,55.085,0,0,0,13.64-1.51c36.82-9.54,60.7-43.79,54.72-77.34A492.643,492.643,0,0,1,3641.61,1897.81Zm-182.03-166.28c10.41-12.99,63.99-78.17,96.38-86.55a73.337,73.337,0,0,1,18.48-2.39c29.25,0,53.9,18.07,59.94,43.95,7.52,32.18-15.44,65.89-51.18,75.15a50.934,50.934,0,0,1-12.65,1.39h-0.01C3534.14,1763.08,3472.81,1737.28,3459.58,1731.53Zm177.66-50.03c-7.99-25.66-33.17-43.24-62.8-43.24a77.316,77.316,0,0,0-19.46,2.51c-29.06,7.52-72.53,56.53-91.29,79.06a72.359,72.359,0,0,0,.01-65.08c-10.09-20.08-28.66-33.43-49.71-36.28,29.57-3.73,89.32-13.55,110.9-33.84,29.15-27.41,34.59-71.27,12.13-97.77-10.63-12.54-25.96-19.45-43.18-19.45-18.05,0-35.95,7.48-50.4,21.07-21.34,20.06-37.46,80.09-44.57,110.82-0.66-21.57-10.87-42.02-28.53-54.82a62.8,62.8,0,0,0-63.24-6.48c22.64-16.33,76.26-57.44,86.85-87.73,6.52-18.66,6.72-38.51.56-55.91a62.637,62.637,0,0,0-19-27.84C3503.57,1421.83,3601.84,1538.42,3637.24,1681.5Zm-292.6-326.92c-0.72-.03-1.45-0.1-2.18-0.1-27.16,0-52.6,20.6-63.31,51.25-10.65,30.46,4.76,98.87,11.74,126.41-9.45-21.54-28.85-36.8-52.07-39.64a63.47,63.47,0,0,0-7.78-.48,64.293,64.293,0,0,0-48.28,22.35c13.73-28.04,39.26-85.19,35.46-115.23-4.31-34-26.86-60.37-54.13-65.12A422.195,422.195,0,0,1,3344.64,1354.58Zm-406.35,73.39a64.266,64.266,0,0,0-12.12,33.03c-1.63,18.48,3.49,37.58,14.42,53.79,15.53,23.05,64.74,45.18,94.06,56.79-0.29-.01-0.58-0.05-0.87-0.05a64.46,64.46,0,0,0-49.39,23.5,71.606,71.606,0,0,0-15.89,55.17c-15.12-29.25-42.15-76.26-65.57-88.99a76.209,76.209,0,0,0-36.24-9.47c-18.93,0-35.98,7.78-47.15,20.92A464.727,464.727,0,0,1,2938.29,1427.97Zm-118.65,598.29c11.05,14.69,28.67,23.22,48.98,23.23a76.073,76.073,0,0,0,36.64-9.72c22.38-12.37,48-56.04,63.32-85.35a71.4,71.4,0,0,0,16.56,50.26,64.467,64.467,0,0,0,48.85,23.25c-29.68,11.76-76.78,33.14-91.87,55.55-20.58,30.55-19.05,69.72,2.13,92.02A464.438,464.438,0,0,1,2819.64,2026.26Zm-23.96-226.67c0,20,19.31,36.26,43.05,36.26,23.01,0,68.77-32.9,70.71-34.31a2.17,2.17,0,0,0,.89-1.78,2.236,2.236,0,0,0-.88-1.79c-1.94-1.41-47.7-34.63-70.72-34.63C2814.99,1763.34,2795.68,1779.6,2795.68,1799.59Zm43.05-31.92c18.8,0,55.88,25.09,65.86,32.08-9.99,6.93-47.06,31.77-65.86,31.77-21.47,0-38.94-14.32-38.94-31.93S2817.26,1767.67,2838.73,1767.67Zm24.93-114.5c7.57,4.12,20.67,6.2,38.93,6.2a341.844,341.844,0,0,0,38.85-2.5,2.053,2.053,0,0,0,1.56-1.15,2.277,2.277,0,0,0,0-2.02c-1.11-2.19-27.3-53.83-47.75-64.96a49.082,49.082,0,0,0-23.27-6.15c-13.88,0-25.39,6.57-30.78,17.56-4.25,8.69-4.21,19.03.13,29.11A50.223,50.223,0,0,0,2863.66,1653.17Zm-18.8-51.03c4.67-9.53,14.81-15.21,27.12-15.21a45.14,45.14,0,0,1,21.38,5.66c16.71,9.09,38.73,49.3,44.54,60.34a333.224,333.224,0,0,1-35.31,2.11c-17.35,0-30.16-1.97-37.04-5.72a46.028,46.028,0,0,1-20.47-21.85C2841.27,1618.62,2841.19,1609.63,2844.86,1602.14Zm188.02-58.35a1.982,1.982,0,0,0,1.9-.27,2.227,2.227,0,0,0,.87-1.79c-0.03-2.48-.81-61.03-14.14-80.8-8.96-13.29-22.71-21.54-35.89-21.54a28.243,28.243,0,0,0-17.09,5.56c-7.57,5.66-12.04,14.86-12.58,25.92a53.465,53.465,0,0,0,9.43,32.04C2978.71,1522.68,3030.68,1542.94,3032.88,1543.79Zm-72.82-72.7c0.47-9.7,4.33-17.73,10.85-22.61a24.367,24.367,0,0,1,14.71-4.76c11.87,0,24.34,7.56,32.54,19.72,10.89,16.15,12.94,62.52,13.3,75.14-11.15-4.56-51.83-22.02-62.72-38.18A48.962,48.962,0,0,1,2960.06,1471.09Zm192.52-103c-9.21,1.3-17.23,7.25-22.6,16.77-5.26,9.35-7.34,21.06-5.83,32.97,3.04,24.04,40.05,67.47,41.63,69.31a2,2,0,0,0,1.52.71,1.229,1.229,0,0,0,.27-0.02,2.058,2.058,0,0,0,1.57-1.16c1.07-2.2,26.29-54.39,23.24-78.42C3189.25,1383.61,3171.63,1365.43,3152.58,1368.09Zm14.25,113.74c-7.85-9.5-36.12-44.93-38.6-64.57-1.39-10.95.49-21.67,5.29-30.19,4.71-8.35,11.67-13.57,19.6-14.68a22.483,22.483,0,0,1,3.16-.22c15.6,0,29.37,15.76,32.02,36.66C3190.79,1428.45,3172.09,1470.49,3166.83,1481.83Zm201.38-69.73c-3.26-10.52-9.85-18.17-18.57-21.55a26.891,26.891,0,0,0-9.77-1.83c-15.47,0-30.85,13.1-37.4,31.85-7.96,22.75,5.55,79.36,6.13,81.76a2.123,2.123,0,0,0,1.27,1.5,2.281,2.281,0,0,0,.72.13,1.965,1.965,0,0,0,1.18-.39c1.93-1.43,47.34-35.19,55.3-57.94C3371,1434.35,3371.42,1422.44,3368.21,1412.1Zm-5.01,32.03c-6.49,18.58-41.65,46.57-51.33,54.02-2.73-12.27-12.04-57.49-5.54-76.08,5.97-17.08,19.76-29.01,33.54-29.01a22.832,22.832,0,0,1,8.35,1.56c7.51,2.91,13.22,9.59,16.08,18.83C3367.21,1422.87,3366.82,1433.76,3363.2,1444.13Zm125.75,55.49c-10.93,0-22.43,4.92-31.56,13.5-17.17,16.15-30.51,72.79-31.07,75.19a2.231,2.231,0,0,0,.46,1.96,2.02,2.02,0,0,0,1.53.73,2.275,2.275,0,0,0,.26-0.02c2.34-.3,57.48-7.61,74.65-23.75,17.71-16.65,21.84-42.34,9.21-57.25C3506.77,1503.3,3498.43,1499.62,3488.95,1499.62Zm11.53,64.38c-14.02,13.18-57.54,20.47-69.41,22.25,3.07-12.18,15.03-56.71,29.06-69.9,8.38-7.87,18.89-12.39,28.82-12.39,8.3,0,15.54,3.16,20.41,8.91C3520.48,1526,3516.5,1548.93,3500.48,1564Zm105.89,129.81c-3.63-15.57-18.63-26.03-37.33-26.03a50.567,50.567,0,0,0-12.69,1.64c-22.35,5.79-59.32,49.26-60.89,51.1a2.269,2.269,0,0,0-.46,1.96,2.145,2.145,0,0,0,1.26,1.51c1.71,0.69,42.21,16.87,67.16,16.87h0a37.846,37.846,0,0,0,9.36-1.02C3595.83,1733.86,3610.9,1713.21,3606.37,1693.81Zm-42.95,42.72h0c-20.48,0-53.07-11.77-62.84-15.48,8.13-9.25,38.49-42.69,56.75-47.42a47.036,47.036,0,0,1,11.71-1.51c16.77,0,30.16,9.13,33.34,22.72,3.99,17.09-9.73,35.39-30.58,40.79A33.79,33.79,0,0,1,3563.42,1736.53Zm10.4,120.88a39.167,39.167,0,0,0-9.6-1.04c-25.16,0-65.69,15.87-67.4,16.55a2.111,2.111,0,0,0-1.28,1.51,2.266,2.266,0,0,0,.47,1.96c1.58,1.86,38.94,45.66,61.49,51.45a51.5,51.5,0,0,0,12.81,1.64h0c18.84,0,33.92-10.45,37.52-26.01C3612.33,1884.04,3597.07,1863.38,3573.82,1857.41Zm30.02,45.03c-3.15,13.58-16.62,22.71-33.53,22.71a47.6,47.6,0,0,1-11.84-1.52c-18.43-4.73-49.11-38.43-57.32-47.75,9.8-3.65,42.41-15.18,63.07-15.18a35.114,35.114,0,0,1,8.62.92C3593.89,1867.02,3607.79,1885.34,3603.84,1902.44Zm-142.87,182.93c9.05,8.17,20.38,12.87,31.08,12.87h0c9.79,0,18.32-3.85,24-10.83,5.08-6.23,7.52-14.62,6.88-23.63-0.88-12.2-7.12-24.39-17.11-33.42-17.45-15.81-72.52-22.24-74.85-22.51a1.974,1.974,0,0,0-1.78.74,2.224,2.224,0,0,0-.43,1.96C3429.34,2012.95,3443.51,2069.57,3460.97,2085.37Zm42.17-51.72c9.17,8.29,14.88,19.39,15.69,30.46,0.57,7.97-1.47,15.05-5.9,20.47-4.9,6.01-12.31,9.32-20.88,9.32h0c-9.73,0-20.08-4.31-28.39-11.82-14.27-12.9-26.89-57.38-30.12-69.54C3445.41,2014.13,3488.88,2020.73,3503.14,2033.65Zm-161.8,174.26a26.881,26.881,0,0,0,9.73-1.82c7.32-2.81,13.33-8.88,16.94-17.07,4.89-11.11,5.09-24.96.55-37.98-7.92-22.76-53-56.68-54.92-58.11a1.928,1.928,0,0,0-1.89-.27,2.114,2.114,0,0,0-1.29,1.49c-0.59,2.4-14.45,59.1-6.53,81.86C3310.48,2194.78,3325.87,2207.9,3341.34,2207.91Zm-27.63-109.56c9.62,7.48,44.51,35.58,50.99,54.18,4.17,11.95,4.01,24.59-.42,34.66-3.19,7.25-8.25,12.38-14.62,14.83a22.913,22.913,0,0,1-8.32,1.55c-13.78-.01-27.58-11.96-33.54-29.06C3301.32,2155.92,3310.91,2110.62,3313.71,2098.35Zm-159.24,130.91a28.875,28.875,0,0,0,3.32.21h0.01c17.85,0,33.31-17.61,35.95-40.95,2.73-24.08-22.87-75.83-23.97-78.02a2.069,2.069,0,0,0-1.57-1.15,1.948,1.948,0,0,0-1.79.72c-1.56,1.85-38.3,45.79-41.03,69.86-1.35,11.94.88,23.61,6.28,32.9C3137.16,2222.26,3145.26,2228.1,3154.47,2229.26Zm-24.99-48.82c2.23-19.66,30.26-55.48,38.04-65.08,5.35,11.27,24.37,52.98,22.15,72.64-2.36,20.82-16.36,37.13-31.87,37.13h-0.01a22.643,22.643,0,0,1-2.83-.18c-7.94-.99-14.97-6.1-19.79-14.39C3130.26,2202.11,3128.24,2191.42,3129.48,2180.44Zm-159.41-27.14a28.252,28.252,0,0,0,17.09,5.57c13.19,0,26.95-8.26,35.9-21.56,13.32-19.77,14.33-78.12,14.37-80.59a2.218,2.218,0,0,0-.87-1.8,1.953,1.953,0,0,0-1.89-.27c-2.22.84-54.43,20.93-67.74,40.69a53.475,53.475,0,0,0-9.43,32.05C2958.04,2138.45,2962.5,2147.65,2970.07,2153.3Zm0.22-55.46c10.87-16.14,51.75-33.47,62.94-37.99-0.41,12.59-2.64,58.81-13.52,74.96-8.2,12.17-20.67,19.72-32.55,19.72a24.3,24.3,0,0,1-14.71-4.76c-6.52-4.87-10.37-12.9-10.84-22.6A48.971,48.971,0,0,1,2970.29,2097.84Zm-96.39-79.25h0a48.931,48.931,0,0,0,23.51-6.3c20.38-11.25,46.4-62.79,47.5-64.97a2.31,2.31,0,0,0,0-2.02,2.05,2.05,0,0,0-1.57-1.14,337.12,337.12,0,0,0-38.37-2.44c-18.61,0-31.9,2.14-39.53,6.35a50.408,50.408,0,0,0-22.19,24.06c-4.29,10.11-4.27,20.45.04,29.1C2848.7,2012.1,2860.14,2018.59,2873.9,2018.59Zm-26.89-44.69a46.1,46.1,0,0,1,20.35-21.99c6.92-3.83,19.93-5.85,37.61-5.85a334.509,334.509,0,0,1,34.84,2.04c-5.78,11.03-27.65,51.15-44.31,60.35a44.961,44.961,0,0,1-21.6,5.8h0c-12.2,0-22.27-5.62-26.96-15.04C2843.22,1991.76,2843.25,1982.77,2847.01,1973.9Zm360.63,67.32c126.61,0,229.6-108.5,229.6-241.86s-102.99-241.85-229.6-241.85S2978.05,1666,2978.05,1799.36,3081.04,2041.22,3207.64,2041.22Zm0-479.38c124.33,0,225.48,106.55,225.48,237.52s-101.15,237.52-225.48,237.52-225.48-106.55-225.48-237.52S3083.31,1561.84,3207.64,1561.84ZM4005,1796.01c0-109.21-79.81-200.41-182.54-209.72,37.14-39.64,57.55-91.93,57.55-147.76,0-116.09-89.66-210.54-199.87-210.54a191.865,191.865,0,0,0-96.73,26.32,221.97,221.97,0,0,0,4.18-42.76c0-116.1-89.66-210.55-199.87-210.55-79.33,0-150.51,48.88-182.64,124.95-33.03-73.26-103.4-120.33-180.58-120.33-110.21,0-199.87,94.45-199.87,210.54a222.628,222.628,0,0,0,4.04,42.06,191.875,191.875,0,0,0-97.23-26.61c-110.21,0-199.88,94.45-199.88,210.55,0,53.89,19.22,104.89,54.2,144.09-94.78,17.2-165.76,105.66-165.76,207.49,0,107.23,78.18,198.2,178.88,209.32-42.85,40.02-67.32,97.14-67.32,157.52,0,116.1,89.67,210.54,199.88,210.54a192.021,192.021,0,0,0,95.53-25.62,221.926,221.926,0,0,0-2.34,31.95c0,116.1,89.66,210.55,199.87,210.55,93.17,0,161.14-42.68,187.52-117.38,26.39,74.7,94.41,117.38,187.66,117.38,110.21,0,199.87-94.45,199.87-210.55a223.11,223.11,0,0,0-2.27-31.49,191.818,191.818,0,0,0,94.72,25.16c110.21,0,199.87-94.44,199.87-210.54,0-59.1-23.63-115.43-65.01-155.32C3927.13,1993.8,4005,1902.84,4005,1796.01Zm-886.18,593.72a2,2,0,0,0-2.23-.61,31,31,0,0,1-11.03,2.03c-12.81,0-24.54-7.89-29.91-20.11a36.282,36.282,0,0,1,1.75-32.63,2.241,2.241,0,0,0-.62-2.93,35.128,35.128,0,0,1-14.55-28.8,3.125,3.125,0,0,0-.04-0.43,35.82,35.82,0,0,1,5.77-19.09q12.735,4.05,25.76,7.38c-0.39,4.01-.64,8.06-0.64,12.15-0.01,66.54,51.37,120.67,114.54,120.68,63.17-.01,114.56-54.15,114.56-120.68,0-4.11-.26-8.14-0.64-12.14q14.355-3.66,28.4-8.21c-1.87,12.71-10.32,23.88-22.48,27.89a2.17,2.17,0,0,0-1.44,1.91,2.214,2.214,0,0,0,1.14,2.11c15.4,7.99,22.34,26.74,16.15,43.6-4.86,13.28-17.2,22.2-30.69,22.2a30.944,30.944,0,0,1-9.04-1.35,2.011,2.011,0,0,0-2.19.75,2.257,2.257,0,0,0-.15,2.42c8.56,15.49,4.62,35.01-9.14,45.52a1.665,1.665,0,0,0-.28.18,31.609,31.609,0,0,1-19.06,6.42,32.164,32.164,0,0,1-25.01-12.1,2.006,2.006,0,0,0-2.21-.64,2.136,2.136,0,0,0-1.4,1.93c-0.98,17.85-14.42,31.79-31.37,32.62a2.2,2.2,0,0,0-.36-0.04h-0.07l-1.15.02c-16.56,0-30.56-13.06-32.58-30.39a2.108,2.108,0,0,0-1.51-1.83,2.024,2.024,0,0,0-2.18.79,32.463,32.463,0,0,1-26.37,13.89,31.689,31.689,0,0,1-17.27-5.17c-14.36-9.34-19.71-29.08-12.16-44.93A2.247,2.247,0,0,0,3118.82,2389.73Zm-111.35-99.82c7.76,16.14,2.62,35.52-11.94,45.09a31.521,31.521,0,0,1-17.4,5.28,32.518,32.518,0,0,1-26.25-13.74,2.018,2.018,0,0,0-2.18-.78,2.145,2.145,0,0,0-1.51,1.84c-1.94,17.46-15.99,30.63-32.68,30.63l-0.55-.01a1.953,1.953,0,0,0-.34-0.03c-16.88-.45-30.94-14.69-32.01-32.4a2.148,2.148,0,0,0-1.4-1.93,1.985,1.985,0,0,0-2.22.66,32.173,32.173,0,0,1-25.16,12.26,31.5,31.5,0,0,1-18.51-6.02,3.183,3.183,0,0,0-.33-0.3c-13.82-10.17-18.07-30.21-9.66-45.62a2.257,2.257,0,0,0-.16-2.42,2,2,0,0,0-2.2-.73,31.088,31.088,0,0,1-9.22,1.39c-13.63,0-25.66-8.64-30.64-22.02-6.18-16.56.8-35.73,15.88-43.64a2.162,2.162,0,0,0,1.13-2.11,2.135,2.135,0,0,0-1.44-1.89c-16.11-5.24-25.96-22.96-22.43-40.35a34.249,34.249,0,0,1,20-25,2.2,2.2,0,0,0,1.17-2.72,36.142,36.142,0,0,1,4.78-32.25,2.43,2.43,0,0,0,.2-0.35,32.475,32.475,0,0,1,15.79-11.64q7.845,11.22,16.25,21.99c-2.64,3.03-5.19,6.18-7.57,9.52-37.94,53.2-27.7,129,22.81,168.96a109.9,109.9,0,0,0,68.7,24.17c36.42,0,69.85-17.58,91.7-48.23a119.809,119.809,0,0,0,6.43-10.18q13.53,6.165,27.46,11.46a32.077,32.077,0,0,1-23.09,10.07,31.118,31.118,0,0,1-10.89-1.98,2.011,2.011,0,0,0-2.23.62A2.251,2.251,0,0,0,3007.47,2289.91Zm-132.91-121.47a489.208,489.208,0,0,0,89.5,70.92c-0.25.39-.48,0.79-0.75,1.17-10.69,15.01-27.05,23.61-44.88,23.61a53.762,53.762,0,0,1-33.63-11.84,59.308,59.308,0,0,1-21.85-38.91,60.978,60.978,0,0,1,10.67-43.78C2873.91,2169.19,2874.24,2168.83,2874.56,2168.44Zm-4.23-1.44a65.507,65.507,0,0,0-11.45,47,63.629,63.629,0,0,0,23.45,41.77,57.739,57.739,0,0,0,36.1,12.71c19.14,0,36.7-9.24,48.17-25.34,0.36-.52.68-1.05,1.01-1.58a471.493,471.493,0,0,0,45.11,24.03c-1.83,3.18-3.77,6.3-5.93,9.33-21.06,29.55-53.29,46.49-88.41,46.49a105.934,105.934,0,0,1-66.23-23.29c-48.69-38.53-58.56-111.6-22-162.9,2.2-3.08,4.54-5.99,6.97-8.79a504.068,504.068,0,0,0,34.48,38.99C2871.17,2165.94,2870.73,2166.44,2870.33,2167ZM2728.1,1799.36c0-278.54,215.12-505.16,479.55-505.16s479.55,226.62,479.55,505.16-215.13,505.16-479.55,505.16S2728.1,2077.91,2728.1,1799.36Zm-75,228.29a2.021,2.021,0,0,0-2.17-.82,31.31,31.31,0,0,1-8.15,1.09c-13.74,0-26.1-9.08-30.88-22.65a2.424,2.424,0,0,0-.1-0.45c-5.67-16.74,1.89-35.66,17.22-43.08a2.157,2.157,0,0,0,1.19-2.07,2.135,2.135,0,0,0-1.38-1.94c-15.95-5.79-25.23-23.86-21.14-41.15,3.65-15.47,16.75-26.29,31.85-26.29a32.042,32.042,0,0,1,5.08.42,1.987,1.987,0,0,0,2.09-1.03,2.273,2.273,0,0,0-.13-2.43c-10.25-14.1-8.54-34.55,3.91-46.57a32.063,32.063,0,0,1,30.04-8.17,2.067,2.067,0,0,0,2.46-1.51,33.87,33.87,0,0,1,21.63-23.36,1.764,1.764,0,0,0,.37-0.17,31.1,31.1,0,0,1,9.59-1.51,30.465,30.465,0,0,1,9.5,1.57q0.21,14.13,1.14,28.06a105.805,105.805,0,0,0-11.23,3.02c-60.18,20.2-93.52,88.23-74.34,151.63,15.24,50.26,59.09,84.02,109.12,84.02a107.686,107.686,0,0,0,45.79-10.14q7.725,13.32,16.2,26.08a29.314,29.314,0,0,1-5.45.58,32.414,32.414,0,0,1-26.91-14.66,1.956,1.956,0,0,0-2.15-.86,2.087,2.087,0,0,0-1.56,1.78c-2.5,17.52-17.54,30.52-34.53,29.47-17.14-1.09-30.44-15.5-30.93-33.54a2.184,2.184,0,0,0-1.35-1.98,1.939,1.939,0,0,0-.71-0.13,2.008,2.008,0,0,0-1.53.72,32.3,32.3,0,0,1-24.46,11.42,31.534,31.534,0,0,1-19.43-6.72,2.443,2.443,0,0,0-.29-0.27c-13.52-10.66-17.15-30.84-8.28-45.94A2.254,2.254,0,0,0,2653.1,2027.65Zm52.31-262.16a2.173,2.173,0,0,0-1.29-2.01,2.081,2.081,0,0,0-.77-0.16,1.982,1.982,0,0,0-1.48.68,32.364,32.364,0,0,1-23.85,10.72,31.557,31.557,0,0,1-20.49-7.56,35.715,35.715,0,0,1-6.97-46.18,2.27,2.27,0,0,0-.03-2.43,1.992,1.992,0,0,0-2.14-.88,31.342,31.342,0,0,1-7.27.86c-14.19,0-26.69-9.48-31.2-23.62a2.875,2.875,0,0,0-.09-0.4c-5.23-16.91,2.82-35.62,18.33-42.58a2.175,2.175,0,0,0,1.25-2.04,2.145,2.145,0,0,0-1.33-1.98c-15.87-6.33-24.47-24.02-20.14-41.29a2.263,2.263,0,0,0,.17-0.43c3.92-14.94,16.95-25.37,31.67-25.37a31.3,31.3,0,0,1,5.94.58,2.03,2.03,0,0,0,2.12-.98,2.253,2.253,0,0,0-.07-2.42c-9.89-14.4-7.61-34.81,5.18-46.47a31.649,31.649,0,0,1,44.34,1.24,1.963,1.963,0,0,0,2.27.42,2.183,2.183,0,0,0,1.22-2.06c-0.68-17.75,11.9-33.44,28.64-35.72a32.224,32.224,0,0,1,29.04,11.53,1.987,1.987,0,0,0,2.83.26,32,32,0,0,1,30.46-6,1.525,1.525,0,0,0,.37.08,32.709,32.709,0,0,1,15.62,11.83q-7.44,11.505-14.3,23.44a107.649,107.649,0,0,0-45.32-9.93c-50.27,0-94.18,33.97-109.27,84.53-18.91,63.49,14.72,131.36,74.98,151.3a108.95,108.95,0,0,0,11.25,2.96q-0.96,15.42-1.06,31.08A34.923,34.923,0,0,1,2705.41,1765.49Zm27.1-61.48c-0.38-.12-0.77-0.21-1.16-0.34a56.484,56.484,0,0,1-32.91-29.01,61.522,61.522,0,0,1-3.78-45.04c7.38-24.75,28.87-41.39,53.48-41.39a53.286,53.286,0,0,1,16.82,2.74c0.4,0.13.78,0.3,1.17,0.45A525.748,525.748,0,0,0,2732.51,1704.01Zm35.33-116.54c-0.55-.21-1.08-0.45-1.65-0.64a57.473,57.473,0,0,0-18.05-2.93c-26.42,0-49.49,17.85-57.4,44.43a65.989,65.989,0,0,0,4.05,48.33,60.687,60.687,0,0,0,35.33,31.15c0.53,0.18,1.07.31,1.61,0.47q-4.455,25.95-6.38,52.76a100.659,100.659,0,0,1-10.29-2.73c-58.09-19.22-90.51-84.65-72.28-145.86,14.54-48.74,56.88-81.49,105.34-81.49a105.346,105.346,0,0,1,33.14,5.38,106.8,106.8,0,0,1,10.07,3.96A524.388,524.388,0,0,0,2767.84,1587.47Zm-0.83,421.9c-0.38.16-.77,0.33-1.16,0.46a53.4,53.4,0,0,1-17.07,2.82c-24.49,0-45.95-16.53-53.4-41.13a61.562,61.562,0,0,1,3.6-45.06,56.533,56.533,0,0,1,32.78-29.17c0.38-.13.77-0.23,1.16-0.34A524.5,524.5,0,0,0,2767.01,2009.37Zm-36.51-116.21a60.7,60.7,0,0,0-35.18,31.31,66.026,66.026,0,0,0-3.86,48.37c8,26.4,31.03,44.14,57.32,44.14a57.468,57.468,0,0,0,18.32-3.01c0.56-.2,1.11-0.44,1.66-0.66a518.57,518.57,0,0,0,23.67,47.06,102.843,102.843,0,0,1-10.06,4.02,105.094,105.094,0,0,1-33.6,5.54c-48.23,0-90.51-32.55-105.2-81.01-18.5-61.12,13.65-126.7,71.67-146.19a101.461,101.461,0,0,1,10.28-2.78q2.01,26.775,6.62,52.73C2731.6,1892.84,2731.05,1892.97,2730.5,1893.16Zm90.3-435.2a2.022,2.022,0,0,0-2.11-.99,31.164,31.164,0,0,1-5.85.56c-14.78,0-27.84-10.49-31.75-25.51-4.54-17.44,4.13-35.35,20.19-41.64a2.215,2.215,0,0,0,.09-4.02c-15.62-7.1-23.47-25.22-18.36-42.26a2.5,2.5,0,0,0,.15-0.38c4.43-14.31,16.99-23.93,31.27-23.93a31.009,31.009,0,0,1,7.36.89,2.013,2.013,0,0,0,2.15-.87,2.27,2.27,0,0,0,.03-2.43,35.782,35.782,0,0,1,6.8-45.85,3.11,3.11,0,0,0,.38-0.25,31.452,31.452,0,0,1,20.38-7.49,32.256,32.256,0,0,1,23.89,10.79,1.99,1.99,0,0,0,2.25.52,2.167,2.167,0,0,0,1.3-2c0.06-17.77,13.32-32.85,30.17-34.34,17.12-1.51,32.25,10.96,35.14,28.52a2.131,2.131,0,0,0,1.6,1.75,2.008,2.008,0,0,0,2.14-.92,32.411,32.411,0,0,1,27.37-15.34,31.624,31.624,0,0,1,15.75,4.25,34.823,34.823,0,0,1,17.01,27.33,2.078,2.078,0,0,0,2.15,1.97,32.588,32.588,0,0,1,27.96,14.05,3.482,3.482,0,0,0,.24.28,35.5,35.5,0,0,1,6.02,19.07q-12.51,4.74-24.72,10.15a116.005,116.005,0,0,0-6.35-10.19c-21.51-30.65-55.99-48.96-92.22-48.96a109.9,109.9,0,0,0-68,23.64c-50.78,39.57-61.55,115.28-24.02,168.79a117.9,117.9,0,0,0,7.56,9.58q-9.48,11.91-18.27,24.43c-5.8-11.44-5.36-25.85,2.22-36.78A2.275,2.275,0,0,0,2820.8,1457.96Zm56.38-30.25c-0.31-.39-0.64-0.77-0.93-1.19a61.083,61.083,0,0,1-10.38-43.87,59.3,59.3,0,0,1,22.12-38.74,53.828,53.828,0,0,1,33.3-11.58,55.432,55.432,0,0,1,45.13,23.96c0.26,0.37.48,0.76,0.72,1.15A489.519,489.519,0,0,0,2877.18,1427.71Zm93.56-72.39c-0.33-.54-0.64-1.08-1.01-1.6a59.474,59.474,0,0,0-48.44-25.72,57.661,57.661,0,0,0-35.74,12.43,63.571,63.571,0,0,0-23.74,41.58,65.494,65.494,0,0,0,11.12,47.09c0.39,0.55.82,1.05,1.24,1.56a503.2,503.2,0,0,0-34.72,38.73c-2.43-2.82-4.76-5.74-6.92-8.82-36.2-51.58-25.81-124.58,23.14-162.73a105.971,105.971,0,0,1,65.56-22.78c34.94,0,68.18,17.64,88.91,47.2,2.13,3.03,4.05,6.16,5.87,9.35A473.667,473.667,0,0,0,2970.74,1355.32Zm117.35-74.84c-15.4-8-22.33-26.75-16.15-43.61,4.86-13.27,17.2-22.19,30.69-22.19a31.221,31.221,0,0,1,9.04,1.34,2,2,0,0,0,2.19-.75,2.257,2.257,0,0,0,.15-2.42c-8.56-15.49-4.62-35.01,9.15-45.52a2.007,2.007,0,0,0,.27-0.17,31.555,31.555,0,0,1,19.06-6.43,32.179,32.179,0,0,1,25.01,12.1,1.97,1.97,0,0,0,2.21.64,2.126,2.126,0,0,0,1.4-1.92c0.98-17.86,14.45-31.81,31.41-32.62a1.311,1.311,0,0,0,.39.02l1.13-.02c16.57,0,30.58,13.08,32.6,30.41a2.12,2.12,0,0,0,1.51,1.83,2.008,2.008,0,0,0,2.18-.8,32.463,32.463,0,0,1,26.37-13.89,31.606,31.606,0,0,1,17.27,5.17c14.6,9.5,19.83,28.83,12.16,44.95a2.272,2.272,0,0,0,.3,2.41,2.018,2.018,0,0,0,2.24.6,31.01,31.01,0,0,1,11.04-2.03c12.79,0,24.53,7.89,29.88,20.1a36.3,36.3,0,0,1-1.74,32.64,2.254,2.254,0,0,0,.62,2.93,35.1,35.1,0,0,1,14.56,28.8,2.6,2.6,0,0,0,.03.4,35.628,35.628,0,0,1-5.81,19.09q-12.72-4.05-25.71-7.37c0.39-4,.64-8.03.64-12.13,0-66.54-51.39-120.68-114.55-120.68s-114.56,54.14-114.56,120.68c0,4.1.26,8.14,0.65,12.14q-14.385,3.675-28.41,8.22c1.87-12.72,10.32-23.89,22.48-27.91a2.145,2.145,0,0,0,1.44-1.9A2.2,2.2,0,0,0,3088.09,1280.48Zm63.52,12.83c-0.02-.42-0.06-0.84-0.06-1.27,0-32.58,25.16-59.08,56.08-59.08s56.08,26.5,56.08,59.08c0,0.42-.05.84-0.07,1.26A458.44,458.44,0,0,0,3151.61,1293.31Zm56.02-64.68c-33.19,0-60.19,28.44-60.19,63.41,0,0.59.05,1.18,0.08,1.76a461.413,461.413,0,0,0-49.78,9.34c-0.33-3.66-.55-7.35-0.55-11.1,0-64.15,49.54-116.34,110.44-116.34s110.44,52.19,110.44,116.34c0,3.74-.22,7.44-0.56,11.1a458.827,458.827,0,0,0-49.77-9.35c0.03-.58.08-1.16,0.08-1.75C3267.82,1257.07,3240.82,1228.63,3207.63,1228.63Zm195.91,78.29c-7.88-16.06-2.91-35.49,11.56-45.2a31.572,31.572,0,0,1,17.65-5.44,32.522,32.522,0,0,1,26.07,13.48,2,2,0,0,0,2.19.76,2.135,2.135,0,0,0,1.49-1.85c1.81-17.64,15.87-30.94,32.73-30.94l0.28,0.01a2.661,2.661,0,0,0,.3.02c16.88,0.29,31.06,14.39,32.28,32.1a2.16,2.16,0,0,0,1.43,1.91,2.032,2.032,0,0,0,2.21-.68,32.163,32.163,0,0,1,25.35-12.5,31.567,31.567,0,0,1,18.29,5.86,4,4,0,0,0,.31.27c13.9,10.04,18.32,30.05,10.04,45.54a2.279,2.279,0,0,0,.19,2.42,2.032,2.032,0,0,0,2.2.72,30.839,30.839,0,0,1,9.51-1.5c13.5,0,25.48,8.53,30.54,21.73,6.4,16.78-.27,35.61-15.51,43.79a2.185,2.185,0,0,0-1.12,2.13,2.153,2.153,0,0,0,1.46,1.88c16.16,5.07,26.16,22.7,22.77,40.12a34.276,34.276,0,0,1-19.78,25.19,2.221,2.221,0,0,0-1.15,2.74,36.049,36.049,0,0,1-4.5,32.28c-0.07.12-.14,0.23-0.2,0.36a32.9,32.9,0,0,1-15.66,11.73q-7.95-11.145-16.48-21.79a117.457,117.457,0,0,0,7.52-9.58,124.748,124.748,0,0,0,21.03-89.66c-4.58-31.86-20.68-59.95-45.31-79.07a109.872,109.872,0,0,0-67.86-23.52c-36.3,0-70.82,18.36-92.32,49.11a117.87,117.87,0,0,0-6.33,10.19q-13.59-6.015-27.58-11.16a32.052,32.052,0,0,1,23.29-10.28,31.042,31.042,0,0,1,10.61,1.87,1.991,1.991,0,0,0,2.23-.63A2.249,2.249,0,0,0,3403.54,1306.92Zm133.97,120.2a488.673,488.673,0,0,0-90.09-70.11c0.23-.38.45-0.77,0.71-1.14a55.465,55.465,0,0,1,45.2-24.04,53.822,53.822,0,0,1,33.21,11.52,59.237,59.237,0,0,1,22.18,38.7,61.106,61.106,0,0,1-10.29,43.9C3538.14,1426.36,3537.82,1426.73,3537.51,1427.12Zm4.23,1.4a65.6,65.6,0,0,0,11.06-47.11,63.66,63.66,0,0,0-23.82-41.55,57.766,57.766,0,0,0-35.65-12.36c-19.08,0-37.22,9.65-48.52,25.8-0.35.52-.66,1.06-0.98,1.59a471.387,471.387,0,0,0-45.31-23.63c1.81-3.18,3.72-6.31,5.84-9.36,20.73-29.64,54.01-47.33,89.01-47.33a105.908,105.908,0,0,1,65.41,22.67c23.76,18.44,39.27,45.51,43.69,76.23a120.327,120.327,0,0,1-20.27,86.44c-2.16,3.08-4.48,6-6.89,8.81a501.159,501.159,0,0,0-34.8-38.65C3540.93,1429.56,3541.36,1429.06,3541.74,1428.52Zm220.48,142.75a2,2,0,0,0,2.17.82,31.168,31.168,0,0,1,8.14-1.08c13.76,0,26.13,9.1,30.9,22.7a1.952,1.952,0,0,0,.1.4c5.66,16.74-1.92,35.66-17.25,43.08a2.2,2.2,0,0,0,.19,4.01c15.94,5.79,25.22,23.86,21.14,41.15-3.67,15.48-16.78,26.28-31.87,26.28a31.029,31.029,0,0,1-5.09-.42,2.024,2.024,0,0,0-2.09,1.03,2.274,2.274,0,0,0,.14,2.43c10.25,14.09,8.53,34.55-3.92,46.57a32.172,32.172,0,0,1-30.06,8.16,2.028,2.028,0,0,0-2.46,1.51,33.82,33.82,0,0,1-21.62,23.35,1.845,1.845,0,0,0-.35.15,31.3,31.3,0,0,1-9.62,1.52h0a30.6,30.6,0,0,1-9.46-1.56q-0.2-14.13-1.12-28.08a106.292,106.292,0,0,0,11.19-3c29.16-9.78,52.94-30.94,66.99-59.58a125.652,125.652,0,0,0,7.37-92.03c-15.21-50.28-59.06-84.06-109.11-84.06a109.024,109.024,0,0,0-34.82,5.73,111.63,111.63,0,0,0-10.9,4.38q-7.725-13.32-16.2-26.08a28.981,28.981,0,0,1,5.41-.58,32.407,32.407,0,0,1,26.91,14.68,2.024,2.024,0,0,0,2.16.87,2.124,2.124,0,0,0,1.56-1.79c2.51-17.52,17.58-30.53,34.54-29.45,17.14,1.09,30.43,15.52,30.92,33.55a2.17,2.17,0,0,0,1.35,1.97,1.959,1.959,0,0,0,2.23-.58,32.268,32.268,0,0,1,24.45-11.41,31.541,31.541,0,0,1,19.52,6.78,2.089,2.089,0,0,0,.22.2c13.51,10.68,17.13,30.87,8.25,45.96A2.3,2.3,0,0,0,3762.22,1571.27Zm1.47,316.4a1.992,1.992,0,0,0,2.14.9,31.766,31.766,0,0,1,6.86-.76c14.41,0,26.98,9.69,31.35,24.14,0.02,0.1.04,0.2,0.07,0.3,5.01,16.99-3.27,35.59-18.86,42.34a2.215,2.215,0,0,0,.03,4.02c15.81,6.54,24.19,24.37,19.63,41.6a2.256,2.256,0,0,0-.15.39c-4.05,14.68-17.04,24.93-31.57,24.93a31,31,0,0,1-6.36-.66,2.023,2.023,0,0,0-2.12.95,2.271,2.271,0,0,0,.04,2.43c9.7,14.51,7.19,34.9-5.74,46.39a31.663,31.663,0,0,1-44.33-1.84,2,2,0,0,0-2.27-.45,2.167,2.167,0,0,0-1.23,2.05c0.46,17.75-12.3,33.27-29.07,35.33a31.981,31.981,0,0,1-28.9-11.92,2,2,0,0,0-1.56-.76,1.967,1.967,0,0,0-1.27.46,31.939,31.939,0,0,1-30.52,5.59,1.864,1.864,0,0,0-.39-0.1,32.719,32.719,0,0,1-15.53-11.9q7.62-11.445,14.65-23.37a112.876,112.876,0,0,0,10.9,4.49,109.138,109.138,0,0,0,35.75,6.06c49.6,0,93.33-33.38,108.82-83.07a125.727,125.727,0,0,0-6.62-92.1c-13.81-28.76-37.43-50.14-66.5-60.18a105.52,105.52,0,0,0-11.15-3.1q1.155-15.4,1.41-31.07a34.994,34.994,0,0,1,18.19,31.23,2.168,2.168,0,0,0,1.27,2.03,1.99,1.99,0,0,0,2.25-.48,31.74,31.74,0,0,1,44.39-2.57,35.757,35.757,0,0,1,6.4,46.27A2.291,2.291,0,0,0,3763.69,1887.67Zm-82.08,13.45c0.36,0.12.73,0.21,1.09,0.33a56.683,56.683,0,0,1,32.56,29.46,61.609,61.609,0,0,1,3.23,45.09c-7.58,24.32-28.99,40.67-53.27,40.67a53.542,53.542,0,0,1-17.49-2.96c-0.4-.14-0.77-0.31-1.16-0.47A524.24,524.24,0,0,0,3681.61,1901.12Zm-36.79,116.05c0.54,0.22,1.06.46,1.63,0.65a57.237,57.237,0,0,0,18.77,3.18c26.07,0,49.05-17.54,57.18-43.65a66.049,66.049,0,0,0-3.48-48.39,60.758,60.758,0,0,0-34.93-31.63c-0.53-.18-1.07-0.32-1.6-0.48q4.77-25.89,7.03-52.67a102.956,102.956,0,0,1,10.23,2.86c28.03,9.69,50.81,30.3,64.12,58.03a121.212,121.212,0,0,1,6.39,88.79c-14.94,47.9-57.09,80.08-104.92,80.08a105.24,105.24,0,0,1-34.46-5.83,107.732,107.732,0,0,1-9.99-4.08A516.541,516.541,0,0,0,3644.82,2017.17Zm3.53-427.69c0.37-.15.73-0.31,1.12-0.44a53.21,53.21,0,0,1,17.04-2.81c24.5,0,45.97,16.54,53.41,41.16a61.489,61.489,0,0,1-3.61,45.05,56.562,56.562,0,0,1-32.78,29.17c-0.38.12-.75,0.21-1.13,0.32A525.594,525.594,0,0,0,3648.35,1589.48Zm36.42,116.26c31.63-10.62,49.15-46.36,39.08-79.67-8-26.42-31.04-44.17-57.34-44.17a57.287,57.287,0,0,0-18.29,3.01c-0.55.18-1.09,0.42-1.63,0.64a517.292,517.292,0,0,0-23.65-47.07,103.832,103.832,0,0,1,43.59-9.53c48.25,0,90.53,32.57,105.19,81.05a121.182,121.182,0,0,1-7.1,88.72c-13.55,27.61-36.48,48.01-64.59,57.44a103.351,103.351,0,0,1-10.24,2.77,530.289,530.289,0,0,0-6.61-52.73C3683.71,1706.05,3684.25,1705.91,3684.77,1705.74Zm-95.81,441.83a2.016,2.016,0,0,0,2.09,1.02,31.647,31.647,0,0,1,5.31-.46c15.04,0,28.15,10.72,31.89,26.07,4.26,17.52-4.7,35.26-20.85,41.28a2.209,2.209,0,0,0-.15,4.02c15.52,7.38,23.07,25.68,17.64,42.66l-0.12.3c-4.58,13.97-17.08,23.37-31.1,23.37a31,31,0,0,1-7.89-1.02,2.026,2.026,0,0,0-2.16.83,2.251,2.251,0,0,0-.08,2.43c9.05,15.13,5.79,34.72-7.57,45.74a1.912,1.912,0,0,0-.34.24,31.527,31.527,0,0,1-19.93,7.12,32.247,32.247,0,0,1-24.28-11.22,2,2,0,0,0-2.25-.56,2.141,2.141,0,0,0-1.32,1.98c-0.35,17.76-13.84,32.6-30.71,33.8-17,1.27-32.1-11.72-34.69-29.14a2.1,2.1,0,0,0-1.57-1.77,1.816,1.816,0,0,0-.46-0.06,2.024,2.024,0,0,0-1.69.93,32.455,32.455,0,0,1-27.06,14.87,31.571,31.571,0,0,1-16.23-4.54,34.848,34.848,0,0,1-16.57-27.63,2.2,2.2,0,0,0-2.11-2.01l-0.97.02a32.471,32.471,0,0,1-26.77-14.56,2.079,2.079,0,0,0-.27-0.32,35.782,35.782,0,0,1-5.82-19.04q12.675-4.545,25.01-9.81c1.91,3.51,3.93,6.96,6.19,10.3,21.46,31.68,56.35,50.59,93.35,50.59a109.92,109.92,0,0,0,66.44-22.44c51.41-38.66,63.39-114.17,26.7-168.33-2.3-3.38-4.77-6.59-7.35-9.68q9.645-11.745,18.61-24.13c5.62,11.55,4.95,25.94-2.8,36.72A2.293,2.293,0,0,0,3588.96,2147.57Zm-56.83,29.28c0.31,0.39.61,0.76,0.89,1.17a61.116,61.116,0,0,1,9.67,44.04,59.176,59.176,0,0,1-22.74,38.34,53.772,53.772,0,0,1-32.53,11,55.406,55.406,0,0,1-45.69-24.76c-0.25-.37-0.47-0.76-0.7-1.15A487.348,487.348,0,0,0,3532.13,2176.85Zm-94.7,70.73c0.31,0.53.61,1.07,0.95,1.58,11.27,16.64,29.6,26.57,49.04,26.57a57.766,57.766,0,0,0,34.92-11.8,63.521,63.521,0,0,0,24.41-41.16,65.584,65.584,0,0,0-10.38-47.27c-0.37-.55-0.8-1.07-1.22-1.59a502,502,0,0,0,35.36-38.08c2.37,2.85,4.65,5.8,6.76,8.92,35.38,52.2,23.83,125.01-25.74,162.28a106.012,106.012,0,0,1-64.05,21.64c-35.67,0-69.31-18.23-90-48.77-2.07-3.06-3.94-6.23-5.7-9.44A470.9,470.9,0,0,0,3437.43,2247.58Zm-119.37,59.11c0.01,64.14-49.54,116.33-110.44,116.34s-110.44-52.2-110.43-116.34c0-3.74.22-7.44,0.55-11.11a458.984,458.984,0,0,0,49.78,9.34c-0.03.59-.08,1.17-0.08,1.78a64.617,64.617,0,0,0,17.62,44.81,58.3,58.3,0,0,0,42.57,18.58h0.01a58.253,58.253,0,0,0,42.55-18.58,64.641,64.641,0,0,0,17.62-44.82c0-.6-0.05-1.18-0.08-1.76a460.774,460.774,0,0,0,49.77-9.34C3317.84,2299.25,3318.06,2302.94,3318.06,2306.69Zm-54.42-1.27c0.02,0.42.06,0.84,0.06,1.27a60.265,60.265,0,0,1-16.42,41.76,54.312,54.312,0,0,1-39.64,17.3v2.17l-0.03-2.17a54.257,54.257,0,0,1-39.64-17.3,60.268,60.268,0,0,1-16.42-41.75c0-.43.04-0.86,0.06-1.29A458.44,458.44,0,0,0,3263.64,2305.42Zm558.17-304a2.1,2.1,0,0,0-1.79,1.49,2.255,2.255,0,0,0,.61,2.3c42.66,39.23,67.13,95.86,67.13,155.37,0,113.71-87.82,206.22-195.76,206.22a188.064,188.064,0,0,1-96.41-26.77,1.983,1.983,0,0,0-2.2.11,2.238,2.238,0,0,0-.85,2.14,218.3,218.3,0,0,1,2.9,35.17c0,113.71-87.82,206.21-195.76,206.21-93.52,0-161.09-43.61-185.5-119.65,16.98-1.4,30.63-14.53,33.55-31.91a35.986,35.986,0,0,0,25.03,10.23,35.536,35.536,0,0,0,21.2-7.05,2.381,2.381,0,0,0,.3-0.18c14.46-10.86,19.44-30.48,12.55-47.21a35.31,35.31,0,0,0,5.81.48c15.18,0,29.06-10.02,34.54-24.95,6.41-17.49.27-36.78-14.29-46.73,12.07-5.8,20.1-18.15,21.4-31.8q2.31-.765,4.6-1.57a40.139,40.139,0,0,0,6.76,20.5,1.925,1.925,0,0,0,.29.34,36.588,36.588,0,0,0,29.03,16,39.1,39.1,0,0,0,18.46,29.07,35.525,35.525,0,0,0,18.26,5.1,36.287,36.287,0,0,0,27.68-13.03c4.46,16.42,19.03,28.29,35.56,28.29,0.83,0,1.66-.04,2.5-0.1,17.48-1.24,31.73-15.5,34.18-33.35a36.085,36.085,0,0,0,24.11,9.37,35.373,35.373,0,0,0,22.09-7.75,2.051,2.051,0,0,0,.36-0.24c14.13-11.39,18.48-31.18,11.03-47.65a33.631,33.631,0,0,0,4.49.29c15.68,0,29.67-10.44,34.9-26.01,0.05-.1.09-0.21,0.13-0.31,5.79-17.68-.97-36.7-15.8-46.1,15.54-8.08,23.75-26.45,19.33-44.61-4.33-17.79-19.86-30.07-37.39-29.3a41.108,41.108,0,0,0-.22-39.17q3.48-4.875,6.85-9.85a36.867,36.867,0,0,0,17.09,12.44,2.134,2.134,0,0,0,.42.1,35.9,35.9,0,0,0,32.39-5.22,35.643,35.643,0,0,0,31.21,11.91c17.37-2.14,30.92-17.11,32.56-35.05a35.493,35.493,0,0,0,22.66,8.16,35.927,35.927,0,0,0,23.86-9.19c13.39-11.91,16.85-32.29,8.79-48.2,17.14,1.23,33.18-10.32,38.14-27.53a1.84,1.84,0,0,0,.16-0.41c4.98-17.99-2.66-36.66-17.92-45.27,14.83-8.81,22.33-27.8,17.29-45.32-0.02-.11-0.04-0.21-0.07-0.32-4.85-16.4-19.06-27.44-35.36-27.44-1.1,0-2.2.06-3.3,0.17a40.155,40.155,0,0,0-9.49-48.02,35.628,35.628,0,0,0-46.61-.28,39.149,39.149,0,0,0-22.03-31.34c0.01-1.55.05-3.09,0.05-4.64,0-1.15-.04-2.3-0.04-3.45a34.616,34.616,0,0,0,9.4,1.36h0a35.094,35.094,0,0,0,11.22-1.85,1.725,1.725,0,0,0,.37-0.16,37.921,37.921,0,0,0,23.37-24.22,36.071,36.071,0,0,0,31.93-9.61c12.89-12.45,15.55-32.94,6.9-48.49,17.6,0.6,32.9-11.69,37.14-29.54,4.23-17.91-4.3-36.57-19.67-44.49,14.46-9.41,21.23-28.61,15.61-45.85a3.2,3.2,0,0,0-.1-0.42c-5.25-15.53-19.28-25.97-34.91-25.97a34.546,34.546,0,0,0-4.77.33c7.3-16.46,2.88-36.11-11.19-47.4a1.7,1.7,0,0,0-.24-0.22,35.542,35.542,0,0,0-22.19-7.8,36.1,36.1,0,0,0-24.31,9.54c-2.53-18.06-16.62-31.93-34.38-33.06-17.58-1.17-33.33,11.18-37.93,28.53a36.217,36.217,0,0,0-27.5-12.85,34.539,34.539,0,0,0-7.96,1.03c-1.65-2.45-3.35-4.87-5.05-7.29a37.144,37.144,0,0,0,16.67-13.12,3.471,3.471,0,0,0,.21-0.37,40.645,40.645,0,0,0,5.42-34.06,38.7,38.7,0,0,0,20.49-27.51c3.5-18.04-5.75-36.28-21.43-43.52,14.39-10.14,20.25-29.49,13.61-46.89-5.69-14.85-19.18-24.45-34.36-24.45a34.682,34.682,0,0,0-6.36.59c6.46-16.56,1.24-36.28-12.91-46.76a1.692,1.692,0,0,0-.32-0.28,35.636,35.636,0,0,0-46.43,3.79c-3.31-17.6-18.08-31.02-35.45-31.47a2.962,2.962,0,0,0-.31-0.03h-0.61c-17.46,0-32.26,12.68-36.08,30.17a36.383,36.383,0,0,0-26.4-11.62,35.556,35.556,0,0,0-19.86,6.11c-15.01,10.07-20.93,29.43-14.83,46.54a34.912,34.912,0,0,0-7.63-.84,36.127,36.127,0,0,0-27.47,13.06q-5.775-2.07-11.62-4a39.974,39.974,0,0,0,5.84-20.77,3.128,3.128,0,0,0-.04-0.44,39.636,39.636,0,0,0-14.82-30.8,40.792,40.792,0,0,0,1.01-34.95c-6.03-13.74-19.23-22.61-33.62-22.61a35.224,35.224,0,0,0-8.13.95c5.87-17.15-.31-36.39-15.45-46.24a35.6,35.6,0,0,0-19.43-5.82,36.35,36.35,0,0,0-26.79,12.05c-4.09-17.45-19.4-29.98-36.72-29.58a2.125,2.125,0,0,0-.42-0.03c-17.77.63-32.23,14.09-35.25,32.05a35.942,35.942,0,0,0-25.03-10.23,35.477,35.477,0,0,0-21.21,7.05,1.665,1.665,0,0,0-.28.18c-14.47,10.85-19.45,30.47-12.56,47.2a35.31,35.31,0,0,0-5.81-.48c-15.18,0-29.06,10.03-34.53,24.96-6.41,17.48-.28,36.77,14.28,46.73-12.07,5.79-20.1,18.15-21.4,31.8q-6.18,2.07-12.29,4.33a40.142,40.142,0,0,0-7.09-20.4,1.867,1.867,0,0,0-.26-0.3,36.6,36.6,0,0,0-29.31-15.52,39.03,39.03,0,0,0-18.92-28.73,35.568,35.568,0,0,0-17.72-4.79,36.206,36.206,0,0,0-28.08,13.52c-4.93-17.29-20.74-29.05-38.51-27.5-17.46,1.54-31.49,16.05-33.66,33.94a36.037,36.037,0,0,0-23.61-8.94,35.375,35.375,0,0,0-22.56,8.12,2.565,2.565,0,0,0-.41.26,40.2,40.2,0,0,0-10.25,47.85,33.644,33.644,0,0,0-3.88-.22c-15.94,0-29.98,10.65-35.07,26.55a3.2,3.2,0,0,0-.16.39c-5.51,17.78,1.56,36.67,16.54,45.82-15.41,8.34-23.33,26.86-18.62,44.94,4.59,17.63,20.51,29.69,37.86,28.63a41.113,41.113,0,0,0,.87,39.2q-2.835,4.125-5.59,8.3a36.742,36.742,0,0,0-17.26-12.26,3.237,3.237,0,0,0-.4-0.09,35.9,35.9,0,0,0-32.36,5.65,36.171,36.171,0,0,0-31.35-11.48c-17.33,2.37-30.7,17.52-32.13,35.48a35.544,35.544,0,0,0-22.29-7.86,35.928,35.928,0,0,0-24.21,9.53c-13.25,12.07-16.47,32.5-8.22,48.3-17.18-1.18-33,10.69-37.78,28.01a2.2,2.2,0,0,0-.17.45c-4.76,18.05,3.11,36.61,18.47,45.03-14.7,8.99-21.96,28.02-16.75,45.44a2.1,2.1,0,0,0,.09.42c4.97,16.12,19.13,26.95,35.22,26.95a33.7,33.7,0,0,0,3.76-.2,40.136,40.136,0,0,0,10.09,47.89,35.468,35.468,0,0,0,23.05,8.5,36.119,36.119,0,0,0,23.55-8.87,39.066,39.066,0,0,0,22.44,31.07c0,0.58.01,1.16,0.02,1.74a34.6,34.6,0,0,0-9.45-1.37,35.254,35.254,0,0,0-11.21,1.84,2.322,2.322,0,0,0-.39.18,37.992,37.992,0,0,0-23.36,24.23,36.066,36.066,0,0,0-31.91,9.62c-12.89,12.44-15.55,32.94-6.89,48.49-17.4-.68-32.91,11.71-37.13,29.55-4.23,17.91,4.3,36.57,19.68,44.49-14.45,9.41-21.21,28.58-15.6,45.81a2.123,2.123,0,0,0,.11.47c5.25,15.52,19.28,25.96,34.9,25.96a35.1,35.1,0,0,0,4.8-.34c-7.12,16.27-2.66,36.23,11.13,47.33a1.988,1.988,0,0,0,.29.29,35.525,35.525,0,0,0,22.18,7.79,36.12,36.12,0,0,0,24.32-9.55c2.54,18.05,16.64,31.93,34.41,33.05,0.75,0.05,1.5.07,2.25,0.07,16.65,0,31.27-12.01,35.66-28.61a36.276,36.276,0,0,0,27.49,12.83,34.977,34.977,0,0,0,8.01-1.04c0.76,1.13,1.56,2.24,2.34,3.38a36.676,36.676,0,0,0-16.78,13,2.026,2.026,0,0,0-.21.38,40.653,40.653,0,0,0-5.72,34.01,38.632,38.632,0,0,0-20.72,27.31c-3.66,18,5.44,36.33,21.04,43.73-14.48,10-20.5,29.29-14,46.75,5.61,15.05,19.15,24.78,34.48,24.78a35.037,35.037,0,0,0,6.04-.53c-6.61,16.49-1.57,36.24,12.48,46.86a1.427,1.427,0,0,0,.34.31,35.538,35.538,0,0,0,21.22,7.06,35.988,35.988,0,0,0,25.23-10.41c3.15,17.61,17.79,31.18,35.14,31.8a2.088,2.088,0,0,0,.36.04l0.95,0.02c17.27,0,32.04-12.54,35.99-29.84a36.354,36.354,0,0,0,26.63,11.88,35.526,35.526,0,0,0,19.58-5.93c15.1-9.92,21.18-29.23,15.22-46.4a34.886,34.886,0,0,0,7.95.92,36.2,36.2,0,0,0,27.29-12.84c5.17,1.91,10.36,3.75,15.61,5.48a40.433,40.433,0,0,0-5.71,20.83,2.3,2.3,0,0,0,.05.45,39.638,39.638,0,0,0,14.81,30.79,40.85,40.85,0,0,0-1.01,34.96c6.03,13.74,19.24,22.61,33.64,22.61a35.053,35.053,0,0,0,8.11-.95c-5.88,17.15.31,36.38,15.45,46.24a35.669,35.669,0,0,0,19.43,5.81,36.34,36.34,0,0,0,26.79-12.04c3.92,16.7,17.98,28.84,34.52,29.51-24.43,76.02-91.94,119.61-185.36,119.61-107.95,0-195.76-92.5-195.76-206.21a218.551,218.551,0,0,1,2.98-35.67,2.2,2.2,0,0,0-.84-2.14,1.963,1.963,0,0,0-2.21-.11,188.139,188.139,0,0,1-97.23,27.27c-107.95,0-195.76-92.51-195.76-206.22,0-60.8,25.33-118.23,69.52-157.55a2.266,2.266,0,0,0,.63-2.32,2.094,2.094,0,0,0-1.79-1.5c-100.89-8.51-179.92-98.77-179.92-205.47,0-101.09,71.42-188.73,166.14-203.87a2.063,2.063,0,0,0,1.64-1.45,2.276,2.276,0,0,0-.47-2.21c-35.96-38.76-55.75-89.92-55.75-144.05,0-113.71,87.81-206.21,195.76-206.21a188.008,188.008,0,0,1,99.17,28.44,1.957,1.957,0,0,0,2.26-.12,2.23,2.23,0,0,0,.79-2.23,218.206,218.206,0,0,1-4.92-45.88c0-113.7,87.81-206.21,195.76-206.21,77.11,0,147.28,47.97,178.76,122.21a1.943,1.943,0,0,0,1.9,1.28,2.044,2.044,0,0,0,1.87-1.33c30.56-77.01,101.48-126.77,180.69-126.77,107.95,0,195.76,92.5,195.76,206.21a218.35,218.35,0,0,1-5.07,46.57,2.212,2.212,0,0,0,.78,2.23,1.974,1.974,0,0,0,2.26.12,188.1,188.1,0,0,1,98.69-28.14c107.95,0,195.75,92.5,195.75,206.2,0,56.24-21.13,108.81-59.52,148.02a2.244,2.244,0,0,0-.49,2.3,2.044,2.044,0,0,0,1.79,1.41c102.74,6.86,183.22,97.23,183.22,205.75C4000.89,1902.26,3922.23,1992.49,3821.81,2001.42Z" transform="translate(-2420 -1001)"/>
</svg>
